<svg width="1166" height="1347" viewBox="0 0 1166 1347" fill="none" xmlns="http://www.w3.org/2000/svg">
<path d="M1163.25 859.287C1165.73 838.543 1165.96 745.873 1165.28 416.453L1164.38 0H10.397V119.502H1040.37L1041.95 312.734C1044.65 606.529 1041.05 820.28 1032.7 870.11C1017.15 961.878 957.394 1065.37 884.115 1126.93C828.197 1173.83 771.377 1200.66 697.872 1214.41C672.168 1219.37 594.604 1221.18 562.135 1217.79C501.934 1211.25 427.978 1191.41 380.853 1169.09C333.729 1146.77 294.722 1118.58 258.195 1080.7C206.786 1027.04 175.896 970.447 148.163 878.227C138.918 847.788 129.674 832.681 115.694 825.466L104.871 820.054L53.012 822.309C24.3765 823.662 0.701614 825.24 0.025215 825.691C-1.10216 826.819 35.8757 935.723 50.5316 974.054C76.4613 1042.82 111.861 1101.45 159.436 1154.21C255.94 1261.31 391.901 1328.95 541.166 1343.61C595.957 1349.02 665.629 1345.64 723.125 1334.81C844.656 1311.82 957.619 1245.98 1036.09 1152.18C1107.56 1066.95 1151.53 965.486 1163.25 859.287Z" fill="white"/>
<path d="M489.532 467.411C473.073 442.834 450.525 427.051 422.792 420.512C385.137 411.718 345.905 423.443 318.171 451.853C281.644 489.282 276.007 542.945 304.192 586.687C336.435 636.968 405.881 653.654 454.358 622.538C467.887 613.744 485.474 595.255 493.365 581.727C512.531 548.807 510.727 498.752 489.532 467.411Z" fill="white"/>
<path d="M888.624 503.261C886.82 495.595 882.762 484.096 879.605 478.008C876.448 471.695 872.841 466.734 871.713 466.734C868.557 466.734 868.782 467.862 876.223 489.282C879.83 499.879 882.987 512.28 882.987 517.241V525.809L867.655 511.604C840.598 485.9 806.551 473.499 763.26 473.499C734.399 473.499 713.881 477.106 680.51 488.154C653.904 496.948 640.376 504.389 655.257 501.683C727.635 489.282 790.768 500.33 835.637 533.25C849.391 543.396 872.39 567.747 878.929 579.472C881.86 584.433 885.242 588.491 886.595 588.491C892.457 588.491 894.036 526.26 888.624 503.261Z" fill="white"/>
</svg>
