<svg width="290" height="81" viewBox="0 0 290 81" fill="none" xmlns="http://www.w3.org/2000/svg">
<path d="M92.053 39.606H99.7189V45.1484H92.053V53.8124H86.2132V45.1484H78.526V39.606H86.2132V31.3029H92.053V39.606Z" fill="white"/>
<path d="M210.442 39.606H218.108V45.1484H210.442V53.8124H204.603V45.1484H196.916V39.606H204.603V31.3029H210.442V39.606Z" fill="white"/>
<path d="M60.1178 61.7753C57.3674 67.3531 53.1109 72.0498 47.8297 75.334C42.5486 78.6182 36.4537 80.3588 30.2346 80.3588C24.0156 80.3588 17.9207 78.6182 12.6395 75.334C7.35836 72.0498 3.1018 67.3531 0.351468 61.7753C0.12025 61.3066 -1.52588e-05 60.7911 -1.52588e-05 60.2685C-1.52588e-05 59.746 0.12025 59.2304 0.351468 58.7618C3.78397 51.802 9.53957 46.2595 16.624 43.092C20.7567 45.5678 25.484 46.8754 30.3016 46.8754C35.1192 46.8754 39.8464 45.5678 43.9792 43.092C50.9923 46.3162 56.6883 51.8468 60.1178 58.7618C60.349 59.2304 60.4692 59.746 60.4692 60.2685C60.4692 60.7911 60.349 61.3066 60.1178 61.7753Z" fill="white"/>
<path d="M148.708 40.179C159.803 40.179 168.797 31.1846 168.797 20.0895C168.797 8.99438 159.803 0 148.708 0C137.613 0 128.618 8.99438 128.618 20.0895C128.618 31.1846 137.613 40.179 148.708 40.179Z" fill="white"/>
<path d="M178.507 61.7752C175.757 67.3531 171.5 72.0498 166.219 75.334C160.938 78.6182 154.843 80.3588 148.624 80.3588C142.405 80.3588 136.31 78.6182 131.029 75.334C125.748 72.0498 121.491 67.3531 118.741 61.7752C118.51 61.3066 118.39 60.7911 118.39 60.2685C118.39 59.746 118.51 59.2304 118.741 58.7618C122.174 51.8019 127.929 46.2595 135.014 43.092C139.146 45.5678 143.874 46.8754 148.691 46.8754C153.509 46.8754 158.236 45.5678 162.369 43.092C169.382 46.3161 175.078 51.8468 178.507 58.7618C178.739 59.2304 178.859 59.746 178.859 60.2685C178.859 60.7911 178.739 61.3066 178.507 61.7752Z" fill="white"/>
<path d="M259.849 40.179C270.944 40.179 279.939 31.1846 279.939 20.0895C279.939 8.99438 270.944 0 259.849 0C248.754 0 239.76 8.99438 239.76 20.0895C239.76 31.1846 248.754 40.179 259.849 40.179Z" fill="white"/>
<path d="M289.648 61.7752C286.898 67.3531 282.642 72.0498 277.36 75.334C272.079 78.6182 265.984 80.3588 259.765 80.3588C253.546 80.3588 247.451 78.6182 242.17 75.334C236.889 72.0498 232.633 67.3531 229.882 61.7752C229.651 61.3066 229.531 60.7911 229.531 60.2685C229.531 59.746 229.651 59.2304 229.882 58.7618C233.315 51.8019 239.07 46.2595 246.155 43.092C250.287 45.5678 255.015 46.8754 259.832 46.8754C264.65 46.8754 269.377 45.5678 273.51 43.092C280.523 46.3161 286.219 51.8468 289.648 58.7618C289.88 59.2304 290 59.746 290 60.2685C290 60.7911 289.88 61.3066 289.648 61.7752Z" fill="white"/>
<path d="M44.6981 7.24832H38.4391L37.8122 4.12187C37.6463 3.30143 37.2023 2.5634 36.5552 2.03249C35.9081 1.50159 35.0975 1.21037 34.2605 1.20804H26.1423C25.3055 1.21031 24.495 1.50136 23.8479 2.03203C23.2008 2.56269 22.7567 3.30044 22.5906 4.12066L21.9637 7.24832H15.7047C14.7435 7.24832 13.8217 7.63015 13.142 8.30982C12.4624 8.98948 12.0806 9.9113 12.0806 10.8725V30.2014C12.0806 31.1626 12.4624 32.0844 13.142 32.7641C13.8217 33.4437 14.7435 33.8256 15.7047 33.8256H44.6981C45.6593 33.8256 46.5811 33.4437 47.2608 32.7641C47.9404 32.0844 48.3222 31.1626 48.3222 30.2014V10.8725C48.3222 9.9113 47.9404 8.98948 47.2608 8.30982C46.5811 7.63015 45.6593 7.24832 44.6981 7.24832ZM45.9061 30.2014C45.9061 30.5218 45.7789 30.8291 45.5523 31.0556C45.3257 31.2822 45.0185 31.4094 44.6981 31.4094H15.7047C15.3843 31.4094 15.0771 31.2822 14.8505 31.0556C14.6239 30.8291 14.4967 30.5218 14.4967 30.2014V10.8725C14.4967 10.5521 14.6239 10.2448 14.8505 10.0183C15.0771 9.79171 15.3843 9.66443 15.7047 9.66443H22.9531C23.2316 9.66449 23.5015 9.56832 23.7173 9.39221C23.933 9.2161 24.0813 8.97086 24.137 8.69799L24.9572 4.5906C25.013 4.31753 25.1614 4.07213 25.3774 3.89599C25.5934 3.71985 25.8636 3.62382 26.1423 3.62415H34.2605C34.5392 3.62382 34.8094 3.71985 35.0254 3.89599C35.2414 4.07213 35.3898 4.31753 35.4456 4.5906L36.2658 8.69799C36.3215 8.97086 36.4698 9.2161 36.6855 9.39221C36.9013 9.56832 37.1712 9.66449 37.4497 9.66443H44.6981C45.0185 9.66443 45.3257 9.79171 45.5523 10.0183C45.7789 10.2448 45.9061 10.5521 45.9061 10.8725V30.2014Z" fill="white"/>
<path d="M30.2014 12.0805C28.5289 12.0805 26.8939 12.5765 25.5033 13.5057C24.1126 14.4349 23.0288 15.7556 22.3887 17.3008C21.7487 18.846 21.5812 20.5463 21.9075 22.1867C22.2338 23.8271 23.0392 25.3339 24.2218 26.5165C25.4045 27.6992 26.9113 28.5046 28.5516 28.8309C30.192 29.1571 31.8923 28.9897 33.4375 28.3496C34.9827 27.7096 36.3034 26.6257 37.2326 25.2351C38.1618 23.8444 38.6578 22.2095 38.6578 20.5369C38.6549 18.295 37.7631 16.1458 36.1778 14.5605C34.5925 12.9753 32.4433 12.0834 30.2014 12.0805ZM30.2014 26.5772C29.0067 26.5772 27.8389 26.223 26.8456 25.5593C25.8523 24.8955 25.0781 23.9522 24.6209 22.8485C24.1637 21.7447 24.0441 20.5302 24.2772 19.3585C24.5102 18.1868 25.0855 17.1106 25.9303 16.2658C26.775 15.4211 27.8513 14.8458 29.023 14.6127C30.1947 14.3797 31.4092 14.4993 32.5129 14.9564C33.6166 15.4136 34.56 16.1878 35.2237 17.1811C35.8874 18.1745 36.2417 19.3423 36.2417 20.5369C36.2398 22.1383 35.6028 23.6736 34.4704 24.8059C33.338 25.9383 31.8028 26.5753 30.2014 26.5772Z" fill="white"/>
<path d="M20.5369 12.0805H18.1208C17.8004 12.0805 17.4932 12.2078 17.2666 12.4344C17.0401 12.6609 16.9128 12.9682 16.9128 13.2886C16.9128 13.609 17.0401 13.9163 17.2666 14.1428C17.4932 14.3694 17.8004 14.4967 18.1208 14.4967H20.5369C20.8573 14.4967 21.1646 14.3694 21.3912 14.1428C21.6177 13.9163 21.745 13.609 21.745 13.2886C21.745 12.9682 21.6177 12.6609 21.3912 12.4344C21.1646 12.2078 20.8573 12.0805 20.5369 12.0805Z" fill="white"/>
</svg>
